<svg xmlns="http://www.w3.org/2000/svg"  viewBox="0 0 100 100" width="50px" height="50px"><path fill="#00a5a5" d="M13 27A2 2 0 1 0 13 31A2 2 0 1 0 13 27Z"/><path fill="#f1bc19" d="M77 12A1 1 0 1 0 77 14A1 1 0 1 0 77 12Z"/><path fill="#c0e5e4" d="M50 13A37 37 0 1 0 50 87A37 37 0 1 0 50 13Z"/><path fill="#f1bc19" d="M83 11A4 4 0 1 0 83 19A4 4 0 1 0 83 11Z"/><path fill="#00a5a5" d="M87 22A2 2 0 1 0 87 26A2 2 0 1 0 87 22Z"/><path fill="#fbcd59" d="M81 74A2 2 0 1 0 81 78 2 2 0 1 0 81 74zM15 59A4 4 0 1 0 15 67 4 4 0 1 0 15 59z"/><path fill="#00a5a5" d="M25 85A2 2 0 1 0 25 89A2 2 0 1 0 25 85Z"/><path fill="#fff" d="M18.5 51A2.5 2.5 0 1 0 18.5 56 2.5 2.5 0 1 0 18.5 51zM21 66A1 1 0 1 0 21 68 1 1 0 1 0 21 66zM80 33A1 1 0 1 0 80 35 1 1 0 1 0 80 33z"/><g><path fill="#f4989e" d="M75.5,40v21c0,5.24-4.26,9.5-9.5,9.5H44.22l-0.15,0.24c-2.66,4.45-6.4,6.5-12.36,6.74C34.86,74.19,35,73.05,35,71v-0.5h-1c-2.54,0-4.92-0.99-6.72-2.78c-1.79-1.8-2.78-4.18-2.78-6.72V40c0-5.24,4.26-9.5,9.5-9.5h32C71.24,30.5,75.5,34.76,75.5,40z"/><path fill="#472b29" d="M66,31.4c4.742,0,8.6,3.858,8.6,8.6v21c0,4.742-3.858,8.6-8.6,8.6H44.5c-0.492,0-0.947,0.258-1.2,0.68c-2.179,3.631-5.022,5.523-9.415,6.114C35.792,74.059,35.9,72.838,35.9,71c0-0.773-0.627-1.4-1.4-1.4H34c-2.297,0-4.457-0.894-6.081-2.518c-1.624-1.624-2.519-3.783-2.519-6.08L25.4,49v-9c0-4.742,3.858-8.6,8.6-8.6H66 M66,30H34c-5.523,0-10,4.477-10,10v9c0,1.89,0,7.117,0,12.002C24,66.524,28.477,71,34,71h0.5c0,2,0,3-4,7c6.709,0,11-2,14-7H66c5.523,0,10-4.477,10-10V40C76,34.477,71.523,30,66,30L66,30z"/><path fill="#472b29" d="M66.5 67h-11c-.276 0-.5-.224-.5-.5s.224-.5.5-.5h11c2.481 0 4.5-2.019 4.5-4.5v-22c0-2.481-2.019-4.5-4.5-4.5h-33c-2.481 0-4.5 2.019-4.5 4.5v21c0 .276-.224.5-.5.5S28 60.776 28 60.5v-21c0-3.033 2.467-5.5 5.5-5.5h33c3.032 0 5.5 2.467 5.5 5.5v22C72 64.532 69.532 67 66.5 67zM46.5 67h-2c-.276 0-.5-.224-.5-.5s.224-.5.5-.5h2c.276 0 .5.224.5.5S46.776 67 46.5 67z"/><path fill="#472b29" d="M52.5,67h-3c-0.276,0-0.5-0.224-0.5-0.5s0.224-0.5,0.5-0.5h3c0.276,0,0.5,0.224,0.5,0.5S52.776,67,52.5,67z"/></g></svg>