<svg id="Capa_1" enable-background="new 0 0 512 512" height="512" viewBox="0 0 512 512" width="512" xmlns="http://www.w3.org/2000/svg"><g><g><path d="m144.521 114.076 96.186 9 96.186-9c-1.261-4.792-3.204-11.309-5.985-18.582l-90.201-9-89.463 9c-3.021 7.44-5.234 13.879-6.723 18.582z" fill="#ea4642"/><path d="m261.704 0c-62.261 0-95.837 59.488-110.459 95.494h179.664c-1.634-4.274-3.557-8.808-5.803-13.408l43.438 14.132 15.35-21.141c-12.409-22.38-49.354-75.077-122.19-75.077z" fill="#f7594e"/><path d="m392.099 111.202c9.735 0 21.698-9.144 21.698-23.309-3.607-8.414-11.963-14.309-21.698-14.309s-18.09 5.895-21.698 14.309c0 12.491 11.963 23.309 21.698 23.309z" fill="#edf4fa"/><path d="m392.099 102.202c-9.734 0-18.09-5.895-21.698-14.309-1.223 2.851-1.902 5.991-1.902 9.29 0 13.034 10.566 23.599 23.599 23.599s23.599-10.566 23.599-23.599c0-3.299-.679-6.439-1.902-9.29-3.606 8.414-11.962 14.309-21.696 14.309z" fill="#d8e5ef"/><path d="m293.74 308.183c-15.268 10.682-33.849 16.953-53.897 16.953-20.048 0-38.629-6.272-53.897-16.953-50.696 7.357-89.64 50.99-89.64 103.725v95.092c0 2.761 2.239 5 5 5h277.074c2.761 0 5-2.239 5-5v-95.093c0-52.735-38.944-96.368-89.64-103.724z" fill="#f7594e"/><path d="m383.383 493.419v-81.507c0-52.738-38.947-96.372-89.641-103.732h-107.799c-50.694 7.36-89.641 50.993-89.641 103.732v81.507l143.542 9z" fill="#f7594e"/><path d="m101.307 512h42.623l95.913-9 95.911 9h42.625c2.761 0 5-2.239 5-5v-13.581h-287.072v13.581c0 2.761 2.238 5 5 5z" fill="#ea4642"/><path d="m239.843 315.555c51.99 0 94.137-40.753 94.137-103.136v-56.377l-94.137-9-94.136 9v56.377c0 58.662 42.146 103.136 94.136 103.136z" fill="#edf4fa"/><g><path d="m176.72 156.042v45.12c0 17.36 7.011 33.08 18.352 44.492l90.129-.614c10.991-11.359 17.767-26.823 17.767-43.878v-45.12l-62.259-9z" fill="#ffd6bd"/><path d="m240.294 254.337c14.137 27.118 50.158 16.166 50.158 16.166s4.95-47.613-50.154-47.613-50.154 47.613-50.154 47.613 36.021 10.952 50.158-16.166z" fill="#c3d0d8"/></g><path d="m123.538 125.768c0 12.477 10.545 20.693 18.794 20.693h195.023c8.248 0 18.794-9.705 18.794-20.693-3.429-6.922-10.545-11.693-18.794-11.693h-195.023c-8.249-.001-15.365 4.77-18.794 11.693z" fill="#edf4fa"/><path d="m328.016 493.419v-17.427h-176.345v17.427l88.171 9z" fill="#565e75"/><path d="m151.671 512h49.134l39.038-9.581 39.039 9.581h49.134v-18.581h-176.345z" fill="#4b5165"/><g fill="#cb3541"><path d="m159.414 427.984v65.435l-7.743 9-7.741-9v-65.435c0-4.274 3.468-7.742 7.742-7.742 4.274.001 7.742 3.469 7.742 7.742z"/><path d="m335.755 427.984v65.435l-7.739 9-7.745-9v-65.435c0-4.274 3.468-7.742 7.742-7.742 4.284.001 7.742 3.469 7.742 7.742z"/></g><path d="m143.93 493.419h15.484v18.581h-15.484z" fill="#ba3243"/><path d="m320.271 493.419h15.484v18.581h-15.484z" fill="#ba3243"/><g fill="#565e75"><path d="m205.863 179.428c-4.284 0-7.757 3.473-7.757 7.757v18.097c0 4.284 3.473 7.757 7.757 7.757s7.757-3.473 7.757-7.757v-18.097c0-4.285-3.473-7.757-7.757-7.757z"/><path d="m273.76 179.428c-4.284 0-7.757 3.473-7.757 7.757v18.097c0 4.284 3.473 7.757 7.757 7.757s7.757-3.473 7.757-7.757v-18.097c0-4.285-3.473-7.757-7.757-7.757z"/></g><path d="m222.216 315.555v150.289l18.082 9 17.173-9v-150.289z" fill="#edf4fa"/><path d="m337.355 137.461h-195.023c-8.248 0-15.365-4.771-18.794-11.693-1.389 2.803-2.19 5.95-2.19 9.29 0 11.589 9.395 20.984 20.984 20.984h195.023c11.589 0 20.984-9.395 20.984-20.984 0-3.34-.801-6.487-2.19-9.29-3.429 6.922-10.546 11.693-18.794 11.693z" fill="#d8e5ef"/><path d="m239.843 306.556c-51.99 0-94.137-42.147-94.137-94.137v18.581c0 51.99 42.146 94.137 94.137 94.137 51.99 0 94.136-42.147 94.136-94.137v-18.581c.001 51.99-42.145 94.137-94.136 94.137z" fill="#d8e5ef"/><path d="m278.882 493.419v-12.091c0-8.552-6.932-15.484-15.484-15.484h-47.109c-8.552 0-15.484 6.932-15.484 15.484v12.091l39.039 9z" fill="#ffe08c"/><path d="m200.805 493.419h78.077v18.581h-78.077z" fill="#f9d375"/></g></g></svg>